<mxfile host="app.diagrams.net" modified="2023-05-29T20:06:52.512Z" agent="Mozilla/5.0 (Windows NT 10.0; Win64; x64) AppleWebKit/537.36 (KHTML, like Gecko) Chrome/110.0.0.0 YaBrowser/23.3.4.603 Yowser/2.5 Safari/537.36" etag="KmwOPCesSZrOMrK-kRqH" version="21.3.4" type="github">
  <diagram name="Страница 1" id="SX7Rvf3FT2v_ZHJy29ds">
    <mxGraphModel dx="1002" dy="1738" grid="1" gridSize="10" guides="1" tooltips="1" connect="1" arrows="1" fold="1" page="1" pageScale="1" pageWidth="827" pageHeight="1169" math="0" shadow="0">
      <root>
        <mxCell id="0" />
        <mxCell id="1" parent="0" />
        <mxCell id="mFQjxvUgPUd98KbhLSOo-2" value="" style="rounded=1;whiteSpace=wrap;html=1;" vertex="1" parent="1">
          <mxGeometry x="180" y="280" width="440" height="300" as="geometry" />
        </mxCell>
        <mxCell id="mFQjxvUgPUd98KbhLSOo-1" value="" style="rounded=1;whiteSpace=wrap;html=1;" vertex="1" parent="1">
          <mxGeometry x="180" y="630" width="440" height="240" as="geometry" />
        </mxCell>
        <mxCell id="mFQjxvUgPUd98KbhLSOo-3" value="" style="rounded=0;whiteSpace=wrap;html=1;" vertex="1" parent="1">
          <mxGeometry x="340" y="650" width="120" height="200" as="geometry" />
        </mxCell>
        <mxCell id="mFQjxvUgPUd98KbhLSOo-4" value="&lt;b&gt;pesentation&lt;/b&gt;" style="text;html=1;strokeColor=none;fillColor=none;align=center;verticalAlign=middle;whiteSpace=wrap;rounded=0;" vertex="1" parent="1">
          <mxGeometry x="190" y="640" width="60" height="30" as="geometry" />
        </mxCell>
        <mxCell id="mFQjxvUgPUd98KbhLSOo-5" value="&lt;b&gt;domain&lt;/b&gt;" style="text;html=1;strokeColor=none;fillColor=none;align=center;verticalAlign=middle;whiteSpace=wrap;rounded=0;" vertex="1" parent="1">
          <mxGeometry x="190" y="290" width="60" height="30" as="geometry" />
        </mxCell>
        <mxCell id="mFQjxvUgPUd98KbhLSOo-6" value="" style="ellipse;whiteSpace=wrap;html=1;" vertex="1" parent="1">
          <mxGeometry x="240" y="490" width="140" height="70" as="geometry" />
        </mxCell>
        <mxCell id="mFQjxvUgPUd98KbhLSOo-11" style="edgeStyle=orthogonalEdgeStyle;rounded=0;orthogonalLoop=1;jettySize=auto;html=1;exitX=0.5;exitY=1;exitDx=0;exitDy=0;entryX=0.75;entryY=0;entryDx=0;entryDy=0;" edge="1" parent="1" source="mFQjxvUgPUd98KbhLSOo-7" target="mFQjxvUgPUd98KbhLSOo-3">
          <mxGeometry relative="1" as="geometry" />
        </mxCell>
        <mxCell id="mFQjxvUgPUd98KbhLSOo-7" value="" style="ellipse;whiteSpace=wrap;html=1;" vertex="1" parent="1">
          <mxGeometry x="410" y="490" width="160" height="70" as="geometry" />
        </mxCell>
        <mxCell id="mFQjxvUgPUd98KbhLSOo-9" value="" style="edgeStyle=orthogonalEdgeStyle;rounded=0;orthogonalLoop=1;jettySize=auto;html=1;exitX=0.5;exitY=1;exitDx=0;exitDy=0;entryX=0.25;entryY=0;entryDx=0;entryDy=0;" edge="1" parent="1" source="mFQjxvUgPUd98KbhLSOo-6" target="mFQjxvUgPUd98KbhLSOo-3">
          <mxGeometry relative="1" as="geometry">
            <mxPoint x="300" y="570" as="sourcePoint" />
          </mxGeometry>
        </mxCell>
        <mxCell id="mFQjxvUgPUd98KbhLSOo-8" value="GetUserNameUseCase" style="text;html=1;strokeColor=none;fillColor=none;align=center;verticalAlign=middle;whiteSpace=wrap;rounded=0;" vertex="1" parent="1">
          <mxGeometry x="280" y="510" width="60" height="30" as="geometry" />
        </mxCell>
        <mxCell id="mFQjxvUgPUd98KbhLSOo-10" value="SaveUserNameUseCase" style="text;html=1;strokeColor=none;fillColor=none;align=center;verticalAlign=middle;whiteSpace=wrap;rounded=0;" vertex="1" parent="1">
          <mxGeometry x="465" y="510" width="60" height="30" as="geometry" />
        </mxCell>
        <mxCell id="mFQjxvUgPUd98KbhLSOo-12" value="Text" style="text;html=1;strokeColor=none;fillColor=none;align=center;verticalAlign=middle;whiteSpace=wrap;rounded=0;" vertex="1" parent="1">
          <mxGeometry x="350" y="600" width="60" height="30" as="geometry" />
        </mxCell>
        <mxCell id="mFQjxvUgPUd98KbhLSOo-13" value="Activity" style="text;html=1;strokeColor=none;fillColor=none;align=center;verticalAlign=middle;whiteSpace=wrap;rounded=0;" vertex="1" parent="1">
          <mxGeometry x="360" y="730" width="60" height="30" as="geometry" />
        </mxCell>
        <mxCell id="mFQjxvUgPUd98KbhLSOo-14" value="" style="rounded=1;whiteSpace=wrap;html=1;" vertex="1" parent="1">
          <mxGeometry x="180" y="-40" width="440" height="300" as="geometry" />
        </mxCell>
        <mxCell id="mFQjxvUgPUd98KbhLSOo-15" value="&lt;b&gt;data&lt;/b&gt;" style="text;html=1;strokeColor=none;fillColor=none;align=center;verticalAlign=middle;whiteSpace=wrap;rounded=0;" vertex="1" parent="1">
          <mxGeometry x="190" y="-30" width="60" height="30" as="geometry" />
        </mxCell>
        <mxCell id="mFQjxvUgPUd98KbhLSOo-16" value="" style="rounded=1;whiteSpace=wrap;html=1;" vertex="1" parent="1">
          <mxGeometry x="330" y="10" width="120" height="60" as="geometry" />
        </mxCell>
        <mxCell id="mFQjxvUgPUd98KbhLSOo-17" value="UserRepository" style="text;html=1;strokeColor=none;fillColor=none;align=center;verticalAlign=middle;whiteSpace=wrap;rounded=0;" vertex="1" parent="1">
          <mxGeometry x="360" y="25" width="60" height="30" as="geometry" />
        </mxCell>
      </root>
    </mxGraphModel>
  </diagram>
</mxfile>
